<svg width="48" height="48" viewBox="0 0 48 48" fill="none" xmlns="http://www.w3.org/2000/svg">
<path d="M21.4087 30.1466V21.2566H20.3537C19.5981 21.6594 18.8678 22.108 18.167 22.5999V23.7583C18.792 23.3299 19.782 22.7249 20.2637 22.4633H20.2837V30.1466H21.4087ZM23.3887 27.9716C23.467 29.0383 24.3787 30.3149 26.227 30.3149C28.3237 30.3149 29.5603 28.5383 29.5603 25.5299C29.5603 22.3066 28.2587 21.0833 26.3053 21.0833C24.762 21.0833 23.3103 22.2033 23.3103 24.0983C23.3103 26.0316 24.6837 27.0483 26.1037 27.0483C27.347 27.0483 28.1537 26.4216 28.4087 25.7316H28.4537C28.447 27.9249 27.6853 29.3383 26.2787 29.3383C25.172 29.3383 24.5987 28.5883 24.5287 27.9716H23.3887ZM28.3103 24.1099C28.3103 25.2699 27.3787 26.0766 26.337 26.0766C25.3353 26.0766 24.4303 25.4383 24.4303 24.0766C24.4303 22.7049 25.4003 22.0599 26.377 22.0599C27.432 22.0599 28.3103 22.7233 28.3103 24.1099Z" fill="#0C233A"/>
<path d="M16.5003 10.6666C16.7213 10.6666 16.9333 10.7544 17.0896 10.9107C17.2459 11.067 17.3337 11.2789 17.3337 11.5V12.3333H30.667V11.5C30.667 11.2789 30.7548 11.067 30.9111 10.9107C31.0674 10.7544 31.2793 10.6666 31.5003 10.6666C31.7213 10.6666 31.9333 10.7544 32.0896 10.9107C32.2459 11.067 32.3337 11.2789 32.3337 11.5V12.3333H34.0003C34.8844 12.3333 35.7322 12.6845 36.3573 13.3096C36.9825 13.9347 37.3337 14.7826 37.3337 15.6666V34C37.3337 34.884 36.9825 35.7319 36.3573 36.357C35.7322 36.9821 34.8844 37.3333 34.0003 37.3333H14.0003C13.1163 37.3333 12.2684 36.9821 11.6433 36.357C11.0182 35.7319 10.667 34.884 10.667 34V15.6666C10.667 14.7826 11.0182 13.9347 11.6433 13.3096C12.2684 12.6845 13.1163 12.3333 14.0003 12.3333H15.667V11.5C15.667 11.2789 15.7548 11.067 15.9111 10.9107C16.0674 10.7544 16.2793 10.6666 16.5003 10.6666V10.6666ZM12.3337 17.3333V34C12.3337 34.442 12.5093 34.8659 12.8218 35.1785C13.1344 35.491 13.5583 35.6666 14.0003 35.6666H34.0003C34.4424 35.6666 34.8663 35.491 35.1788 35.1785C35.4914 34.8659 35.667 34.442 35.667 34V17.3333H12.3337Z" fill="#0C233A"/>
</svg>
