<svg width="48" height="48" viewBox="0 0 48 48" fill="none" xmlns="http://www.w3.org/2000/svg">
<g clip-path="url(#clip0_647_65119)">
<path d="M18.8664 28.1333C18.7569 28.1333 18.6473 28.1494 18.5428 28.1833C17.9488 28.3762 17.3241 28.5 16.6664 28.5C16.0087 28.5 15.384 28.3762 14.7895 28.1833C14.685 28.1494 14.576 28.1333 14.4664 28.1333C11.622 28.1333 9.31796 30.447 9.33308 33.2951C9.3395 34.4987 10.329 35.4667 11.5331 35.4667H21.7998C23.0038 35.4667 23.9934 34.4987 23.9998 33.2951C24.0149 30.447 21.7108 28.1333 18.8664 28.1333ZM16.6664 26.6667C19.0965 26.6667 21.0664 24.6968 21.0664 22.2667C21.0664 19.8366 19.0965 17.8667 16.6664 17.8667C14.2363 17.8667 12.2664 19.8366 12.2664 22.2667C12.2664 24.6968 14.2363 26.6667 16.6664 26.6667ZM36.4664 12H18.8664C17.6532 12 16.6664 13.0198 16.6664 14.2729V16.4C17.7398 16.4 18.7335 16.7108 19.5998 17.2158V14.9333H35.7331V28.1333H32.7998V25.2H26.9331V28.1333H23.4388C24.3142 28.8983 24.9568 29.9085 25.2579 31.0667H36.4664C37.6797 31.0667 38.6665 30.0469 38.6665 28.7938V14.2729C38.6665 13.0198 37.6797 12 36.4664 12Z" fill="#0C233A"/>
</g>
<defs>
<clipPath id="clip0_647_65119">
<rect width="29.3333" height="23.4667" fill="white" transform="translate(9.33301 12)"/>
</clipPath>
</defs>
</svg>
