<svg xmlns="http://www.w3.org/2000/svg" viewBox="0 0 371.76 76.19"><defs><style>.cls-1{fill:#2a72b9;}</style></defs><g id="Layer_2" data-name="Layer 2"><g id="Layer_1-2" data-name="Layer 1"><path class="cls-1" d="M31.45,11.16V54.88a4,4,0,0,1-4,4H22.94a4,4,0,0,1-4-4V11.16H4a4,4,0,0,1-4-4V.57H50.39V7.16a4,4,0,0,1-4,4Z"/><path class="cls-1" d="M46.39,15.75a4,4,0,0,1,4,4V52q0,11.87-6.26,17.72T25.29,75.62q-12.78,0-19-5.86T0,52V19.75a4,4,0,0,1,4-4H8.39a4,4,0,0,1,4,4V50.09q0,7.2,3.18,10.85t9.52,3.65q6.38,0,9.64-3.67T38,50.09V19.75a4,4,0,0,1,4-4Z"/><path class="cls-1" d="M82.53,58.23H69.76V32.76H65.62V22.24h4.14V11.43H82.53V22.24h7.22V32.76H82.53Z"/><path class="cls-1" d="M104.27,22.24V41.46a11.47,11.47,0,0,0,1.23,5.68q1.23,2.18,5.16,2.18t5.15-2.18A11.32,11.32,0,0,0,117,41.53V22.24h12.77V43.92q0,9-5.51,12.24t-13.64,3.26a26.45,26.45,0,0,1-13.61-3.26Q91.5,52.89,91.51,44V22.24Z"/><path class="cls-1" d="M149.8,58.23H137V32.76H132.9V22.24H137V11.43H149.8V22.24H157V32.76H149.8Z"/><path class="cls-1" d="M178,21.05a24.43,24.43,0,0,1,15.19,5.08q6.5,5,6.49,14.21t-6.49,14.1a25.66,25.66,0,0,1-30.34,0q-6.53-4.94-6.52-14.13t6.49-14.21a24.1,24.1,0,0,1,15.18-5Zm-6,13.57a8.27,8.27,0,0,0-2.17,5.72A8.07,8.07,0,0,0,172,46.09a9,9,0,0,0,12.1,0,8.2,8.2,0,0,0,2.14-5.78,8.38,8.38,0,0,0-2.14-5.74A7.66,7.66,0,0,0,178,32.13,7.92,7.92,0,0,0,172,34.62Z"/><path class="cls-1" d="M216.1,28.13h.14a11.53,11.53,0,0,1,4.87-4.77,14.78,14.78,0,0,1,6.77-1.54l2.46-.07V34a1.73,1.73,0,0,1-.53-.21,2.36,2.36,0,0,0-.52-.21,9.16,9.16,0,0,0-2.11-.56,17.6,17.6,0,0,0-2.24-.14q-5.34,0-7.09,3.12a15.65,15.65,0,0,0-1.75,7.76V58.23H203.33v-36H216.1Z"/><path class="cls-1" d="M261.06,23.36l-4.27,8.14a16,16,0,0,0-1.86-.77,15.08,15.08,0,0,0-2.07-.56c-.52-.1-1-.18-1.51-.25a10.19,10.19,0,0,0-1.44-.11c-.23,0-.48,0-.74,0a2.3,2.3,0,0,0-.73.18,4.93,4.93,0,0,0-1.76.73,1.73,1.73,0,0,0-.77,1.51,1.94,1.94,0,0,0,1,1.79,7.9,7.9,0,0,0,2.28.88,10.94,10.94,0,0,0,1.33.31l1.12.18a17.28,17.28,0,0,1,7.48,3.29c2,1.59,3,4.05,3,7.37q0,6.87-5.05,10a22.34,22.34,0,0,1-11.16,3.33h-.77a27.35,27.35,0,0,1-7.54-1.05,29.2,29.2,0,0,1-7-3l4.63-9A15.33,15.33,0,0,0,238,48a32.25,32.25,0,0,0,3.16,1.3,21.87,21.87,0,0,0,2.18.56,10.29,10.29,0,0,0,2,.21,4.22,4.22,0,0,0,.6,0,5.57,5.57,0,0,0,.66-.1,4.66,4.66,0,0,0,1.9-.84,2.08,2.08,0,0,0,.84-1.76,2.29,2.29,0,0,0-1.47-2.21,17.36,17.36,0,0,0-3.51-1.08c-.52-.1-1-.2-1.51-.32l-1.51-.39a14.73,14.73,0,0,1-5.5-2.7q-2.5-1.92-2.5-6.77,0-6.53,4.84-9.61a19.71,19.71,0,0,1,10.6-3.15h.42a35,35,0,0,1,6.07.52,24.47,24.47,0,0,1,5.78,1.79Z"/><path class="cls-1" d="M279.65,0V26.8h.14a15.07,15.07,0,0,1,5-4.28,14.14,14.14,0,0,1,6.49-1.4q6.87,0,10.21,4.13t3.33,11v22H292.07V39.43a15,15,0,0,0-1-5.58q-1-2.57-4.73-2.56t-5.12,2.56a11.63,11.63,0,0,0-1.55,5.58v18.8H266.89V0Z"/><path class="cls-1" d="M322.59,3.44a6.88,6.88,0,0,1,2.1,5.05,6.9,6.9,0,0,1-2.1,5,7.12,7.12,0,0,1-10.1,0,6.87,6.87,0,0,1-2.11-5,7,7,0,0,1,2.11-5.1,6.83,6.83,0,0,1,5.05-2.13A7.15,7.15,0,0,1,322.59,3.44Zm1.33,54.79H311.15v-36h12.77Z"/><path class="cls-1" d="M342.58,26.31h.14a10.53,10.53,0,0,1,4.35-3.76,14.79,14.79,0,0,1,5.68-1.43h.84a16.57,16.57,0,0,1,13.12,5.78,19.89,19.89,0,0,1,5.05,13.51,19.44,19.44,0,0,1-5,13.4,16.65,16.65,0,0,1-13,5.61h-1.05a18.15,18.15,0,0,1-5.5-1.3,11.77,11.77,0,0,1-4.6-3.26V76.19H329.81V22.24h12.77Zm1.75,8.31a8.27,8.27,0,0,0-2.17,5.72,8.07,8.07,0,0,0,2.17,5.75,7.89,7.89,0,0,0,6,2.32,7.81,7.81,0,0,0,6.06-2.33,8.2,8.2,0,0,0,2.14-5.78,8.38,8.38,0,0,0-2.14-5.74,7.63,7.63,0,0,0-6.06-2.43A7.93,7.93,0,0,0,344.33,34.62Z"/></g></g></svg>