<svg xmlns="http://www.w3.org/2000/svg" viewBox="0 0 371.76 80.05"><defs><style>.cls-1,.cls-2{fill:#2a72b9;}.cls-2{font-size:70.15px;font-family:Futura-Bold;font-weight:700;letter-spacing:-0.03em;}</style></defs><g id="Layer_2" data-name="Layer 2"><g id="Layer_1-2" data-name="Layer 1"><path class="cls-1" d="M31.45,13.09V56.81a4,4,0,0,1-4,4H22.94a4,4,0,0,1-4-4V13.09H4a4,4,0,0,1-4-4V2.5H50.39V9.09a4,4,0,0,1-4,4Z"/><path class="cls-1" d="M46.39,17.68a4,4,0,0,1,4,4V54q0,11.87-6.26,17.72T25.29,77.55q-12.78,0-19-5.86T0,54V21.68a4,4,0,0,1,4-4H8.39a4,4,0,0,1,4,4V52q0,7.2,3.18,10.85t9.52,3.65q6.38,0,9.64-3.67T38,52V21.68a4,4,0,0,1,4-4Z"/><text class="cls-2" transform="translate(64.36 61.52)">tutorship</text></g></g></svg>